<svg width="29" height="28" viewBox="0 0 29 28" fill="none" xmlns="http://www.w3.org/2000/svg">
<path d="M28.275 9.43592C28.2751 7.57828 27.7117 5.76393 26.6585 4.23052C25.6053 2.69711 24.1114 1.51612 22.3726 0.842249C20.6338 0.168377 18.7311 0.0330421 16.9137 0.453968C15.0963 0.874894 13.449 1.83245 12.1875 3.20122H0.487518V27.7853H25.1906V16.2959C26.1602 15.4325 26.9361 14.3753 27.4675 13.1933C27.999 12.0113 28.2742 10.7309 28.275 9.43592ZM23.5219 9.43592C23.5238 10.326 23.2603 11.1967 22.7649 11.9377C22.2695 12.6788 21.5645 13.2568 20.7389 13.5988C19.9133 13.9407 19.0045 14.0311 18.1273 13.8586C17.2502 13.686 16.4441 13.2584 15.8112 12.6296C15.1783 12.0008 14.7471 11.1993 14.5719 10.3263C14.3968 9.45337 14.4858 8.54839 14.8275 7.72583C15.1692 6.90325 15.7484 6.20011 16.4917 5.70538C17.235 5.21064 18.109 4.94657 19.0031 4.94656C20.1999 4.94656 21.3479 5.41924 22.195 6.26089C23.0422 7.10253 23.5194 8.24439 23.5219 9.43592ZM20.4375 23.0533H5.24064V7.93322H9.87187C9.78244 8.42926 9.73537 8.93195 9.73125 9.43592C9.73378 11.8833 10.7114 14.2297 12.4497 15.9602C14.1879 17.6908 16.5448 18.6641 19.0031 18.6666C19.4838 18.6641 19.9634 18.6235 20.4375 18.5453V23.0533Z" fill="#737680"/>
</svg>
