<svg width="28" height="28" viewBox="0 0 28 28" fill="none" xmlns="http://www.w3.org/2000/svg">
<path d="M26.48 8.62013C25.9711 7.45649 25.2975 6.37207 24.48 5.40013C23.2714 3.92047 21.7632 2.71353 20.0546 1.85874C18.346 1.00395 16.4758 0.520704 14.567 0.440796C12.6582 0.360888 10.7541 0.686132 8.98 1.39512C7.20594 2.10412 5.60214 3.18079 4.27417 4.55426C2.94619 5.92774 1.92414 7.56688 1.27529 9.36381C0.626436 11.1607 0.365493 13.0747 0.509634 14.9797C0.653775 16.8848 1.19973 18.7377 2.11157 20.4165C3.02341 22.0954 4.28046 23.5621 5.79998 24.7201C6.77498 25.478 7.85233 26.0941 8.99998 26.5501C10.609 27.2095 12.3311 27.5491 14.07 27.5501C17.6594 27.5422 21.0992 26.1114 23.6354 23.5714C26.1717 21.0315 27.5973 17.5895 27.6 14.0001C27.6026 12.1486 27.2213 10.3167 26.48 8.62013ZM14.06 3.19013C15.6215 3.18996 17.1642 3.53127 18.58 4.19013C18.2347 4.3393 17.8718 4.44349 17.5 4.50013C16.2766 4.67723 15.1432 5.24521 14.2691 6.1193C13.3951 6.9934 12.8271 8.12673 12.65 9.35013C12.5722 10.0362 12.2602 10.6745 11.7665 11.1573C11.2728 11.6401 10.6277 11.9378 9.93998 12.0001C8.71657 12.1772 7.58324 12.7452 6.70915 13.6193C5.83505 14.4934 5.26707 15.6267 5.08998 16.8501C5.03002 17.5025 4.75167 18.1156 4.29998 18.5901C3.52063 16.9434 3.17053 15.1262 3.28225 13.3078C3.39397 11.4894 3.96388 9.72883 4.93895 8.18988C5.91401 6.65093 7.26255 5.38365 8.85905 4.50598C10.4555 3.62831 12.2481 3.16877 14.07 3.17013L14.06 3.19013ZM5.78998 21.0001C5.90998 20.8901 6.02998 20.7901 6.14998 20.6701C7.03963 19.8076 7.61069 18.669 7.76998 17.4401C7.83456 16.7494 8.14298 16.1042 8.63998 15.6201C9.11822 15.1223 9.76195 14.8164 10.45 14.7601C11.6734 14.583 12.8067 14.015 13.6808 13.1409C14.5549 12.2668 15.1229 11.1335 15.3 9.91013C15.3432 9.18764 15.6533 8.50697 16.17 8.00013C16.66 7.51198 17.3099 7.21723 18 7.17013C19.1239 7.01549 20.1721 6.51585 21 5.74013C21.9426 6.5222 22.7413 7.46303 23.36 8.52013C23.322 8.57148 23.2784 8.61844 23.23 8.66013C22.7526 9.16233 22.1098 9.47489 21.42 9.54013C20.1953 9.71413 19.0603 10.2811 18.1856 11.1558C17.311 12.0304 16.744 13.1655 16.57 14.3901C16.4995 15.0785 16.1932 15.7214 15.7029 16.2099C15.2127 16.6983 14.5687 17.0022 13.88 17.0701C12.653 17.2459 11.5154 17.8127 10.6363 18.6864C9.75713 19.5602 9.18328 20.6942 8.99998 21.9201C8.94616 22.4088 8.77832 22.8781 8.50998 23.2901C7.48397 22.6809 6.56506 21.9073 5.78998 21.0001ZM14.06 24.8601C13.0452 24.8612 12.0354 24.7198 11.06 24.4401C11.3936 23.8181 11.6106 23.1403 11.7 22.4401C11.7701 21.7532 12.0749 21.1115 12.5632 20.6233C13.0514 20.1351 13.6931 19.8302 14.38 19.7601C15.6052 19.585 16.7408 19.0179 17.6168 18.1436C18.4929 17.2694 19.0624 16.135 19.24 14.9101C19.3101 14.2232 19.6149 13.5815 20.1032 13.0933C20.5914 12.6051 21.2331 12.3002 21.92 12.2301C22.842 12.1102 23.7208 11.7669 24.48 11.2301C24.9015 12.828 24.9515 14.5013 24.626 16.1215C24.3004 17.7417 23.6081 19.2658 22.6021 20.5769C21.5961 21.888 20.3031 22.9512 18.8224 23.685C17.3417 24.4188 15.7125 24.8037 14.06 24.8101V24.8601Z" fill="#737680"/>
</svg>
