<svg width="28" height="24" viewBox="0 0 28 24" fill="none" xmlns="http://www.w3.org/2000/svg">
<path d="M0.467792 10.57C1.21807 7.60469 2.95568 4.97144 5.40396 3.08954C7.85225 1.20764 10.8705 0.185303 13.978 0.185303C17.0855 0.185303 20.1037 1.20764 22.552 3.08954C25.0003 4.97144 26.7378 7.60469 27.4881 10.57H26.2678C24.2092 10.5402 22.1928 11.1452 20.5017 12.3C20.4041 12.3695 20.3022 12.433 20.1966 12.49H20.0542C19.9487 12.433 19.8468 12.3695 19.7492 12.3C18.0431 11.1719 16.0338 10.5694 13.978 10.5694C11.9221 10.5694 9.91282 11.1719 8.20678 12.3C8.10918 12.3695 8.00729 12.433 7.90169 12.49H7.75932C7.65372 12.433 7.55183 12.3695 7.45423 12.3C5.76318 11.1452 3.74676 10.5402 1.68813 10.57H0.467792ZM24.0712 16.84C24.6976 16.3603 25.4741 16.1093 26.2678 16.13H27.9051V12.92H26.2678C24.8697 12.9034 23.5036 13.3313 22.3729 14.14C21.7366 14.6013 20.9668 14.8502 20.1763 14.8502C19.3857 14.8502 18.616 14.6013 17.9797 14.14C16.8202 13.3464 15.4415 12.921 14.0288 12.921C12.6162 12.921 11.2374 13.3464 10.078 14.14C9.44166 14.6013 8.67189 14.8502 7.88135 14.8502C7.09082 14.8502 6.32105 14.6013 5.68474 14.14C4.54007 13.321 3.15436 12.8925 1.73898 12.92H0.0508423V16.13H1.68813C2.48187 16.1093 3.25829 16.3603 3.88474 16.84C5.04204 17.6342 6.41927 18.06 7.83051 18.06C9.24173 18.06 10.619 17.6342 11.7763 16.84C12.4035 16.3618 13.1794 16.111 13.9729 16.13C14.7668 16.1076 15.5439 16.3588 16.1695 16.84C17.3289 17.6337 18.7077 18.0591 20.1203 18.0591C21.533 18.0591 22.9118 17.6337 24.0712 16.84ZM24.0712 22.58C24.6976 22.1003 25.4741 21.8493 26.2678 21.87H27.9051V18.66H26.2678C24.8697 18.6434 23.5036 19.0713 22.3729 19.88C21.7366 20.3413 20.9668 20.5902 20.1763 20.5902C19.3857 20.5902 18.616 20.3413 17.9797 19.88C16.8202 19.0864 15.4415 18.661 14.0288 18.661C12.6162 18.661 11.2374 19.0864 10.078 19.88C9.44166 20.3413 8.67189 20.5902 7.88135 20.5902C7.09082 20.5902 6.32105 20.3413 5.68474 19.88C4.54007 19.061 3.15436 18.6325 1.73898 18.66H0.0508423V21.87H1.68813C2.48187 21.8493 3.25829 22.1003 3.88474 22.58C5.04204 23.3742 6.41927 23.8 7.83051 23.8C9.24173 23.8 10.619 23.3742 11.7763 22.58C12.4035 22.1018 13.1794 21.851 13.9729 21.87C14.7668 21.8476 15.5439 22.0988 16.1695 22.58C17.3289 23.3737 18.7077 23.7991 20.1203 23.7991C21.533 23.7991 22.9118 23.3737 24.0712 22.58Z" fill="#737680"/>
</svg>
