<svg width="22" height="28" viewBox="0 0 22 28" fill="none" xmlns="http://www.w3.org/2000/svg">
<path d="M12.4155 4.33995V0.373291H0.046196V27.6266H12.4155V23.6599C9.88163 23.6599 7.45154 22.6422 5.65983 20.8306C3.86814 19.019 2.86158 16.5619 2.86158 13.9999C2.86158 11.4379 3.86814 8.98091 5.65983 7.16931C7.45154 5.35771 9.88163 4.33995 12.4155 4.33995Z" fill="#737680"/>
<path d="M12.4155 4.33995V23.6599C14.9492 23.6599 17.3792 22.6422 19.1709 20.8306C20.9626 19.019 21.9691 16.5619 21.9691 13.9999C21.9691 11.4379 20.9626 8.98091 19.1709 7.16931C17.3792 5.35771 14.9492 4.33995 12.4155 4.33995Z" fill="#737680"/>
</svg>
