<svg width="24" height="25" viewBox="0 0 24 25" fill="none" xmlns="http://www.w3.org/2000/svg">
<path d="M18.0168 11.0455C17.6824 11.386 17.4263 11.7969 17.2668 12.2488C17.1072 12.7009 17.0482 13.1829 17.0938 13.6607L17.078 13.6446C17.1249 14.207 17.05 14.7729 16.8584 15.303C16.6669 15.833 16.3632 16.3144 15.9689 16.7135C15.5745 17.1125 15.0988 17.4197 14.5751 17.6136C14.0512 17.8074 13.492 17.8832 12.9362 17.8357L12.9521 17.8518C12.2873 17.7892 11.6196 17.9355 11.0401 18.271C10.4605 18.6064 9.99733 19.1145 9.71357 19.7261C9.42989 20.3377 9.33954 21.023 9.45477 21.6885C9.57001 22.3539 9.88528 22.9672 10.3576 23.4447C10.8299 23.9222 11.4363 24.2407 12.094 24.3567C12.7518 24.4727 13.4289 24.3807 14.033 24.093C14.6371 23.8054 15.1389 23.3362 15.4699 22.7494C15.8008 22.1627 15.9448 21.4869 15.8824 20.8143L15.8991 20.8303C15.8523 20.268 15.9272 19.702 16.1187 19.172C16.3103 18.6419 16.6138 18.1606 17.0082 17.7615C17.4026 17.3625 17.8782 17.0553 18.4021 16.8615C18.9259 16.6677 19.4852 16.5918 20.0409 16.6393L20.0241 16.6232C20.5672 16.6727 21.1137 16.5826 21.6132 16.3612C22.1127 16.14 22.5489 15.7948 22.8814 15.3575C23.2139 14.9202 23.432 14.4051 23.5153 13.8599C23.5987 13.3146 23.5447 12.7569 23.3583 12.2385C23.1719 11.7199 22.8593 11.2574 22.4493 10.8937C22.0392 10.5301 21.545 10.2771 21.0126 10.1581C20.4802 10.0392 19.9268 10.0581 19.4036 10.2133C18.8803 10.3684 18.4042 10.6546 18.0194 11.0455H18.0168Z" fill="#737680"/>
<path d="M11.5077 15.7464L11.4909 15.7303C11.9633 15.7785 12.4403 15.7198 12.8875 15.5586C13.3347 15.3973 13.7409 15.1376 14.0767 14.798C14.4125 14.4585 14.6696 14.0476 14.8293 13.5952C14.989 13.1427 15.0473 12.6602 15 12.1821L15.0168 12.1982C14.9699 11.6358 15.0448 11.0699 15.2364 10.5398C15.428 10.0098 15.7315 9.52846 16.1259 9.12936C16.5202 8.73031 16.9959 8.42315 17.5197 8.22931C18.0435 8.03548 18.6028 7.95965 19.1585 8.00712L19.1418 7.99105C19.8066 8.05423 20.4746 7.90834 21.0545 7.57328C21.6343 7.23823 22.0979 6.73031 22.382 6.11882C22.6662 5.50734 22.757 4.82204 22.6421 4.15641C22.5272 3.49078 22.2122 2.87722 21.74 2.39942C21.2678 1.92162 20.6615 1.60284 20.0037 1.48657C19.3459 1.37029 18.6687 1.46218 18.0643 1.74969C17.4601 2.0372 16.9581 2.50636 16.627 3.09315C16.2959 3.67994 16.1517 4.3558 16.2141 5.02855L16.1982 5.01159C16.2454 5.57399 16.1705 6.14001 15.979 6.67011C15.7875 7.20022 15.484 7.68164 15.0896 8.08074C14.6952 8.47985 14.2194 8.78702 13.6955 8.98078C13.1717 9.17453 12.6123 9.25025 12.0565 9.20266L12.0724 9.21962C11.6 9.1715 11.123 9.23016 10.6758 9.39141C10.2286 9.55257 9.82245 9.81239 9.48663 10.1519C9.15081 10.4915 8.89377 10.9024 8.73405 11.3548C8.57436 11.8072 8.51603 12.2898 8.56327 12.7678L8.54739 12.7518C8.59415 13.3141 8.5191 13.88 8.3275 14.41C8.13589 14.9399 7.83232 15.4212 7.43799 15.8202C7.04365 16.2193 6.56803 16.5264 6.0443 16.7203C5.52057 16.9142 4.96134 16.9902 4.40563 16.9428L4.42151 16.9589C3.75667 16.8957 3.08876 17.0416 2.50888 17.3767C1.92898 17.7118 1.46535 18.2196 1.18123 18.8311C0.89709 19.4427 0.806282 20.1279 0.921187 20.7936C1.0361 21.4592 1.35113 22.0728 1.82331 22.5505C2.29549 23.0284 2.90182 23.3471 3.55963 23.4634C4.21743 23.5796 4.89466 23.4878 5.49896 23.2003C6.10325 22.9128 6.60519 22.4436 6.9363 21.8569C7.26741 21.27 7.41159 20.5942 7.34915 19.9214L7.36592 19.9375C7.31901 19.3751 7.39394 18.8092 7.58549 18.2791C7.77704 17.7491 8.0806 17.2677 8.47498 16.8686C8.86934 16.4696 9.34501 16.1624 9.86886 15.9686C10.3926 15.7748 10.952 15.6989 11.5077 15.7464Z" fill="#737680"/>
<path d="M5.59415 13.9544C5.92858 13.6141 6.18463 13.2032 6.34401 12.7511C6.5034 12.2991 6.5622 11.8169 6.51621 11.3393L6.53298 11.3553C6.48603 10.7928 6.56099 10.2267 6.75265 9.6965C6.9443 9.16632 7.24803 8.68489 7.6426 8.28579C8.03717 7.88669 8.51308 7.57956 9.03707 7.38586C9.5611 7.19214 10.1206 7.11652 10.6765 7.16427L10.6597 7.14819C11.3243 7.2112 11.992 7.06523 12.5716 6.73019C13.1512 6.39517 13.6146 5.88737 13.8986 5.27608C14.1825 4.66478 14.2732 3.97973 14.1583 3.31435C14.0435 2.64896 13.7285 2.03564 13.2565 1.55802C12.7845 1.08039 12.1784 0.761714 11.5208 0.645443C10.8633 0.529172 10.1863 0.620967 9.58219 0.908311C8.97804 1.19565 8.47626 1.66455 8.14517 2.25107C7.81408 2.83759 7.66983 3.51318 7.7321 4.18569L7.71621 4.16962C7.76312 4.73199 7.68819 5.29794 7.49663 5.82798C7.30508 6.35802 7.00152 6.83936 6.60715 7.23844C6.21278 7.63751 5.73709 7.94468 5.21329 8.13851C4.68949 8.33234 4.1302 8.40817 3.57445 8.36069L3.59033 8.37677C3.0473 8.32749 2.50077 8.41771 2.00137 8.63907C1.50198 8.86043 1.06588 9.20578 0.733489 9.6431C0.401097 10.0803 0.183167 10.5955 0.0998949 11.1407C0.0166225 11.686 0.070701 12.2436 0.25712 12.762C0.443539 13.2805 0.756267 13.7429 1.16632 14.1065C1.57638 14.4702 2.0705 14.7231 2.60289 14.842C3.13528 14.9609 3.68871 14.9419 4.21192 14.7868C4.73512 14.6316 5.21116 14.3453 5.59591 13.9544H5.59415Z" fill="#737680"/>
</svg>
